<svg id="logo-white" data-name="logo-white" xmlns="http://www.w3.org/2000/svg" width="365" height="90" viewBox="0 0 365 90">
  <defs>
    <style>
      .cls-1 {
        fill: #fff;
      }

      .cls-1, .cls-2 {
        fill-rule: evenodd;
      }

      .cls-2 {
        fill: #ff8d00;
      }
    </style>
  </defs>
  <path id="Rounded_Rectangle_1_copy_2" data-name="Rounded Rectangle 1 copy 2" class="cls-1" d="M13.823,18.968h6.848a4.558,4.558,0,0,1,4.558,4.558v0.108a4.558,4.558,0,0,1-4.558,4.558H13.823a4.558,4.558,0,0,1-4.558-4.558V23.525A4.558,4.558,0,0,1,13.823,18.968ZM24.466,56.215h0.108a4.558,4.558,0,0,1,4.558,4.558v0.108a4.558,4.558,0,0,1-4.558,4.558H24.466a4.558,4.558,0,0,1-4.558-4.558V60.773A4.558,4.558,0,0,1,24.466,56.215ZM85.89,27.836l-4.257,22.7,6.74,7.8,6.385-7.8L90.5,27.836l3.193-4.612c10.161,3.016,16.926,12,17.027,21.639,0.124,11.807-9.728,22.7-22.348,22.7-12.139.006-21.9-10.064-22.349-21.639-0.386-10.072,6.369-19.576,16.673-22.7Zm79.352,42V51.047h18.99V69.832h12.183V23.244H184.232v17.9h-18.99v-17.9H153.059V69.832h12.183Zm49.617-40.553V20.734H203.7v8.545h11.162Zm0,40.553V34.094H203.7V69.832h11.162Zm17.559,0V52.81a14.582,14.582,0,0,1,.477-3.933,7.439,7.439,0,0,1,1.5-2.882,6.125,6.125,0,0,1,2.621-1.763,10.932,10.932,0,0,1,3.709-.576h3.539v-9.7a5.979,5.979,0,0,0-1.5-.509,9.954,9.954,0,0,0-2.246-.237,8.946,8.946,0,0,0-3.846.814,8.242,8.242,0,0,0-2.926,2.272,14.473,14.473,0,0,0-2.008,3.289h-0.477l-0.816-5.493h-9.189V69.832h11.162Zm38.83-.068a16.3,16.3,0,0,0,5.615-2.611,11.207,11.207,0,0,0,3.5-4.272,13.517,13.517,0,0,0,1.191-5.8H270.738a6.017,6.017,0,0,1-.477,2.441,5.3,5.3,0,0,1-1.361,1.865,5.945,5.945,0,0,1-2.178,1.187,10,10,0,0,1-3,.407,8.842,8.842,0,0,1-4.56-1.017,6.065,6.065,0,0,1-2.518-2.984,12.556,12.556,0,0,1-.817-4.815h25.727V51.793a22.814,22.814,0,0,0-2.11-10.511,13.37,13.37,0,0,0-6.159-6.035,22.541,22.541,0,0,0-9.9-1.967,23.165,23.165,0,0,0-10.141,2.034,14.212,14.212,0,0,0-6.466,6.171,21.713,21.713,0,0,0-2.246,10.443,21.755,21.755,0,0,0,2.28,10.579,14.136,14.136,0,0,0,6.568,6.137,24.511,24.511,0,0,0,10.413,2A28.962,28.962,0,0,0,271.248,69.764ZM257.057,44.13a5.8,5.8,0,0,1,2.518-2.373,9.123,9.123,0,0,1,4.084-.814,7.936,7.936,0,0,1,2.757.441,5.42,5.42,0,0,1,2.041,1.322,5.761,5.761,0,0,1,1.294,2.2A9.763,9.763,0,0,1,270.193,48H255.9A10.218,10.218,0,0,1,257.057,44.13Z" transform="translate(-0.813)"/>
  <path id="Rounded_Rectangle_1_copy_3" data-name="Rounded Rectangle 1 copy 3" class="cls-2" d="M318.21,68.791a16.112,16.112,0,0,0,7.3-5.752,16.928,16.928,0,0,0,2.683-9.88h-6.317a12.148,12.148,0,0,1-1.732,6.733,10.257,10.257,0,0,1-4.89,3.959,19.855,19.855,0,0,1-7.506,1.286,18.068,18.068,0,0,1-8.456-1.827,11.965,11.965,0,0,1-5.332-5.718,23.683,23.683,0,0,1-1.833-10.049V46.121a24.353,24.353,0,0,1,1.833-10.185,12.241,12.241,0,0,1,5.366-5.854,17.585,17.585,0,0,1,8.422-1.895,18.761,18.761,0,0,1,7.336,1.32,10.551,10.551,0,0,1,4.856,3.959,11.978,11.978,0,0,1,1.732,6.7H328.2a17.172,17.172,0,0,0-2.615-9.779,15.825,15.825,0,0,0-7.234-5.82,27.309,27.309,0,0,0-10.6-1.929q-10.529,0-16.436,5.955T285.4,46.662q0,8.189,2.615,13.5a17.272,17.272,0,0,0,7.574,7.918,25.717,25.717,0,0,0,12.09,2.605A27.554,27.554,0,0,0,318.21,68.791Zm39.632-.1a12.791,12.791,0,0,0,5.6-6.124,25.143,25.143,0,0,0,1.9-10.489,25.1,25.1,0,0,0-1.9-10.523,12.822,12.822,0,0,0-5.6-6.091,21.9,21.9,0,0,0-18.271,0,12.991,12.991,0,0,0-5.637,6.091A24.7,24.7,0,0,0,332,52.076a24.736,24.736,0,0,0,1.936,10.489,12.958,12.958,0,0,0,5.637,6.124A21.9,21.9,0,0,0,357.842,68.69ZM342.9,64.325a8.208,8.208,0,0,1-3.5-4.23,19.68,19.68,0,0,1-1.154-7.275V51.332a19.63,19.63,0,0,1,1.154-7.309,8.224,8.224,0,0,1,3.5-4.2,11.458,11.458,0,0,1,5.807-1.353,11.272,11.272,0,0,1,5.774,1.353,8.448,8.448,0,0,1,3.5,4.2,19.155,19.155,0,0,1,1.188,7.309v1.489a19.2,19.2,0,0,1-1.188,7.275,8.43,8.43,0,0,1-3.5,4.23,11.261,11.261,0,0,1-5.774,1.353A11.447,11.447,0,0,1,342.9,64.325ZM49.516,18.819a4.9,4.9,0,0,0,0-9.6H45.961a4.636,4.636,0,0,1,0-9.242h42.3a45.813,45.813,0,0,1,24.172,7.11A45.285,45.285,0,0,1,129.5,26.64a44.638,44.638,0,0,1,2.844,28.438,43.925,43.925,0,0,1-5.687,13.508q1.422,6.043,2.843,12.086L112.08,62.9a30.582,30.582,0,0,0,4.266-27.727A29.863,29.863,0,0,0,101.06,18.108a29.514,29.514,0,0,0-12.8-2.844A29.75,29.75,0,0,0,76.888,72.5a29.457,29.457,0,0,0,28.793-3.555l11.02,11.02-5.687,3.91a43.878,43.878,0,0,1-17.063,6.043,45.363,45.363,0,0,1-29.149-6.4A43.843,43.843,0,0,1,51.649,71.43a41.741,41.741,0,0,1-3.555-6.043H37.074a5.119,5.119,0,0,1-3.91-4.621,4.783,4.783,0,0,1,3.91-4.621H50.582a5.015,5.015,0,0,0,0-9.6H4.37A4.729,4.729,0,0,1,4.725,37.3C7.688,37.3,41.038,37,44,37a4.334,4.334,0,0,0,3.383-3.962,4.885,4.885,0,0,0-3.555-4.977H33.164a4.686,4.686,0,0,1,0-9.242H49.516Z" transform="translate(-0.813)"/>
</svg>
